<svg width="20" height="41" viewBox="0 0 20 41" fill="none" xmlns="http://www.w3.org/2000/svg">
<g filter="url(#filter0_ii_911_5329)">
<path fill-rule="evenodd" clip-rule="evenodd" d="M18.0631 0.3607C17.8862 0.580027 17.1437 2.93996 16.4135 5.60448L15.0858 10.4493H8.0108C0.14361 10.4493 0 10.4746 0 11.8642C0 12.252 0.810914 18.7853 1.80229 26.3824C3.13795 36.6201 3.69133 40.2998 3.94065 40.5978C4.24682 40.9642 4.81347 41 10.318 41C15.8873 41 16.3863 40.9676 16.7053 40.5862C17.0599 40.1619 17.089 39.9182 19.2996 18.8215C20.1865 10.359 20.2206 10.6998 18.4628 10.46L17.5478 10.3353L18.7717 6.00346C19.4447 3.62096 19.9974 1.45665 19.9999 1.19401C20.0096 0.152545 18.6893 -0.41538 18.0631 0.3607ZM16.6133 13.2426C16.8906 13.399 17.1827 13.7323 17.2621 13.9831C17.4175 14.4742 16.7662 21.207 16.5217 21.6352C16.1269 22.3269 15.2002 22.4183 9.72486 22.3048C5.06468 22.2081 4.17439 22.1352 3.8899 21.8269C3.54267 21.4503 2.75176 16.4856 2.74228 14.6231C2.73407 12.9852 2.74228 12.9834 9.875 12.9697C14.4667 12.9611 16.2417 13.0329 16.6133 13.2426ZM4.52604 24.1857C4.60037 24.4192 6.1066 38.3868 6.1066 38.843C6.1066 38.9191 5.94361 38.9476 5.74441 38.9059C5.43066 38.8405 5.27989 37.8569 4.61575 31.5366C4.19418 27.5249 3.88906 24.1656 3.93749 24.0717C4.07584 23.8036 4.42581 23.8713 4.52604 24.1857Z" fill="#73C639"/>
</g>
<defs>
<filter id="filter0_ii_911_5329" x="-0.5" y="-0.5" width="21" height="42" filterUnits="userSpaceOnUse" color-interpolation-filters="sRGB">
<feFlood flood-opacity="0" result="BackgroundImageFix"/>
<feBlend mode="normal" in="SourceGraphic" in2="BackgroundImageFix" result="shape"/>
<feColorMatrix in="SourceAlpha" type="matrix" values="0 0 0 0 0 0 0 0 0 0 0 0 0 0 0 0 0 0 127 0" result="hardAlpha"/>
<feOffset dx="-0.5" dy="-0.5"/>
<feGaussianBlur stdDeviation="0.25"/>
<feComposite in2="hardAlpha" operator="arithmetic" k2="-1" k3="1"/>
<feColorMatrix type="matrix" values="0 0 0 0 1 0 0 0 0 1 0 0 0 0 1 0 0 0 0.4 0"/>
<feBlend mode="normal" in2="shape" result="effect1_innerShadow_911_5329"/>
<feColorMatrix in="SourceAlpha" type="matrix" values="0 0 0 0 0 0 0 0 0 0 0 0 0 0 0 0 0 0 127 0" result="hardAlpha"/>
<feOffset dx="0.5" dy="0.5"/>
<feGaussianBlur stdDeviation="0.25"/>
<feComposite in2="hardAlpha" operator="arithmetic" k2="-1" k3="1"/>
<feColorMatrix type="matrix" values="0 0 0 0 0.127604 0 0 0 0 0.267969 0 0 0 0 0.408333 0 0 0 0.4 0"/>
<feBlend mode="normal" in2="effect1_innerShadow_911_5329" result="effect2_innerShadow_911_5329"/>
</filter>
</defs>
</svg>
